<?xml version="1.0" encoding="UTF-8" standalone="no"?>
<svg
   xmlns:dc="http://purl.org/dc/elements/1.1/"
   xmlns:cc="http://creativecommons.org/ns#"
   xmlns:rdf="http://www.w3.org/1999/02/22-rdf-syntax-ns#"
   xmlns:svg="http://www.w3.org/2000/svg"
   xmlns="http://www.w3.org/2000/svg"
   version="1.1"
   id="svg2"
   xml:space="preserve"
   width="2216.4019"
   height="1385.1339"
   viewBox="0 0 2216.4019 1385.1339"><metadata
     id="metadata8"><rdf:RDF><cc:Work
         rdf:about=""><dc:format>image/svg+xml</dc:format><dc:type
           rdf:resource="http://purl.org/dc/dcmitype/StillImage" /><dc:title></dc:title></cc:Work></rdf:RDF></metadata><defs
     id="defs6" /><g
     id="g10"
     transform="matrix(1.3333333,0,0,-1.3333333,-558.46665,2359.2272)"><g
       id="g18"
       transform="scale(0.106913)"><path
         d="m 11613.9,12150.8 c 21.2,-159.4 35.9,-283.6 45.7,-372.9 -661.3,967.9 -2147.23,1858.1 -3259.9,2388.3 -943.57,449.5 -2306.63,963.1 -2306.63,963.1 L 7199.75,16300 c 549.42,-173.4 1729.16,-623.1 3026.15,-1597.1 1142,-857.5 1317.2,-1450.8 1317.2,-1450.8 15.9,-373.3 41.6,-882.4 70.8,-1101.3"
         style="fill:#231f20;fill-opacity:1;fill-rule:nonzero;stroke:none"
         id="path20" /></g><path
       d="m 1248.41,1240.72 c 0,0 -1.07,-2.62 -2.91,-6.63 0,0 -78.04,89.42 -218,160.1 -139.96,70.68 -421.84,143.43 -421.84,143.43 l 36.89,43.71 c 0,0 229.83,-72.38 388.45,-159.15 163.75,-89.57 217.41,-181.46 217.41,-181.46"
       style="fill:#231f20;fill-opacity:1;fill-rule:nonzero;stroke:none;stroke-width:0.1"
       id="path22" /><path
       d="m 865.85,1434.08 c 154.24,-40.44 242.97,-93.68 242.97,-93.68 0,0 -187.141,70.17 -346.54,93.68 -111.341,16.41 -171.64,27.04 -171.64,27.04 l -2.73,30.06 c 0,0 141.626,-21.36 277.94,-57.1"
       style="fill:#231f20;fill-opacity:1;fill-rule:nonzero;stroke:none;stroke-width:0.1"
       id="path24" /><path
       d="m 721.69,1301.12 c 123.16,4.2 272.22,-17.5 272.22,-17.5 0,0 -196.64,5.6 -305.11,-5.59 -67.53,-6.97 -119.06,-14.76 -148.34,-19.64 7.55,12.4 14.76,24.41 21.13,35.29 28.22,1.79 81.47,4.76 160.1,7.44"
       style="fill:#231f20;fill-opacity:1;fill-rule:nonzero;stroke:none;stroke-width:0.1"
       id="path26" /><path
       d="m 570.1,1308.46 c -17.97,-0.54 -31.81,-1.06 -40.03,-1.39 9.09,21.73 28.48,68.3 40.31,98.48 57.92,1.22 187.1,2.01 291.97,-11.36 139.73,-17.8 288.28,-67.47 381.02,-164.6 -2.05,-4.22 -4.61,-9.18 -7.49,-14.04 0,0 -132.1,65.97 -282.56,84.87 -111.87,14.05 -296.09,10.69 -383.22,8.04"
       style="fill:#231f20;fill-opacity:1;fill-rule:nonzero;stroke:none;stroke-width:0.1"
       id="path28" /><path
       d="m 1232.19,1209.66 c -1.57,-2.35 -3.2,-4.59 -4.86,-6.6 -11.26,-13.63 -30.81,-33.18 -30.81,-33.18 0,0 -110.01,18.03 -316.28,6.42 -206.27,-11.61 -418.01,-42.34 -418.01,-42.34 0,0 34.39,53.28 66.95,106.05 64.2,10.36 273.1,41.31 421.34,31.02 177.14,-12.3 281.67,-61.37 281.67,-61.37"
       style="fill:#231f20;fill-opacity:1;fill-rule:nonzero;stroke:none;stroke-width:0.1"
       id="path30" /><path
       d="m 1160.11,1166.38 c 0,0 14.74,-32.65 27.39,-45.82 0,0 -254.18,6.01 -407.43,2.88 -153.25,-3.13 -361.22,-14.85 -361.22,-14.85 l 1.56,7.81 c 0,0 272.87,24.24 453.49,33.62 180.61,9.39 286.21,16.36 286.21,16.36"
       style="fill:#231f20;fill-opacity:1;fill-rule:nonzero;stroke:none;stroke-width:0.1"
       id="path32" /><path
       d="m 1326.86,1163.67 c 0,0 -51.87,-27.26 -72.41,-34.63 -20.54,-7.38 -36.69,-6.36 -50.38,2.6 -13.7,8.95 -21.82,22.85 -21.82,22.85 0,0 19.5,0.16 29.61,4.68 24.76,11.06 39.4,60.92 45.19,58.28 5.79,-2.63 43.36,-39.1 69.81,-53.78"
       style="fill:#231f20;fill-opacity:1;fill-rule:nonzero;stroke:none;stroke-width:0.1"
       id="path34" /><g
       id="g36"
       transform="scale(0.127678)"><path
         d="m 16300,8772.94 -12.1,-103.39 c 0,0 -2688.1,85.14 -3813.2,91.25 -1125,6.1 -2577.37,-21.78 -2577.37,-21.78 409.97,160.09 682.97,357.78 682.97,357.78 0,0 937.7,-83.26 1515.8,-113.41 577.9,-30.16 4203.9,-210.45 4203.9,-210.45"
         style="fill:#231f20;fill-opacity:1;fill-rule:nonzero;stroke:none"
         id="path38" /></g><g
       id="g40"
       transform="scale(0.125915)"><path
         d="m 15874.6,9543.29 c 69.2,-117.15 350.1,-427.52 425.4,-509.95 -633.4,28.35 -1813.2,140.41 -3091.8,269.54 -1564.5,157.97 -2469.3,-22.79 -2469.3,-22.79 -110,53.77 -236.7,140.02 -353.2,227.69 159.1,78.15 606.7,280.43 1135.7,365.89 662.5,107.05 1661.3,35.66 2680.7,-81.57 728.5,-83.78 1363.3,-185.76 1666.2,-237.14 2,-4.13 4.2,-8.02 6.3,-11.67"
         style="fill:#231f20;fill-opacity:1;fill-rule:nonzero;stroke:none"
         id="path42" /></g><g
       id="g44"
       transform="scale(0.122163)"><path
         d="m 16114.2,10802.5 c 75,-225 129.2,-567.5 185.8,-787.9 -1172.3,253.1 -3350.7,476.8 -4295.8,315 -923.4,-158 -1389.4,-461.16 -1389.4,-461.16 -24.5,19.89 -103.1,84.07 -124.9,102.24 984.3,772.32 2104.5,875.42 2822.3,908.02 617,28.1 2330.6,-48.4 2800,-70.4 0.7,-1.9 1.3,-3.9 2,-5.8"
         style="fill:#231f20;fill-opacity:1;fill-rule:nonzero;stroke:none"
         id="path46" /></g><g
       id="g48"
       transform="scale(0.120317)"><path
         d="m 16300,11121.5 -2468.8,62.2 2296.8,258.5 c 57.8,-96.2 121.2,-209.6 172,-320.7"
         style="fill:#231f20;fill-opacity:1;fill-rule:nonzero;stroke:none"
         id="path50" /></g><g
       id="g52"
       transform="scale(0.120147)"><path
         d="m 16071.6,11585.7 c -388.5,-46.8 -1176.4,-142.9 -1591.3,-201.2 -564.5,-79.3 -1914.5,-257.1 -2412.2,-424.5 -523.8,-176.3 -852.4,-325.3 -1031.8,-457.1 -179.5,-131.8 -407.3,-329.4 -407.3,-329.4 l -29.3,20.6 c -14.3,12.2 -27.3,23.5 -39.1,33.8 l 1.9,2.1 c 0,0 701.8,769.2 1054.6,1034.8 352.8,265.6 1150.9,637.7 2023.4,940.9 872.5,303.3 1735.6,522.6 1735.6,522.6 l 923.9,-1115.1 c 0,0 -88.2,-10.5 -228.4,-27.5"
         style="fill:#231f20;fill-opacity:1;fill-rule:nonzero;stroke:none"
         id="path54" /></g><g
       id="g56"
       transform="scale(0.11531)"><path
         d="m 15411,14348.7 c 384.6,-365.6 889,-794.3 889,-794.3 0,0 -1601.4,-422.5 -2698.4,-882.7 -1097,-460.2 -1714.8,-857.4 -1954.4,-1128.5 -239.6,-271.1 -713.3,-824.4 -713.3,-824.4 0,0 -82.5,1026.2 -103.1,1320.1 -20.7,293.9 15.5,711.6 15.5,711.6 0,0 416.3,740.8 1040.5,1301.9 624.1,561.2 2465.1,1292.5 2465.1,1292.5 0,0 674.6,-630.5 1059.1,-996.2"
         style="fill:#231f20;fill-opacity:1;fill-rule:nonzero;stroke:none"
         id="path58" /></g><path
       d="m 554.614,918.87 c 0,-18.03 1.467,-49.26 2.515,-51.99 4.821,-3.35 12.577,-4.4 16.769,-4.4 19.913,0 28.297,11.11 28.297,25.57 0,13.42 -8.593,29.56 -22.847,37.1 -8.385,4.4 -19.703,5.66 -24.734,5.03 z m 0,17.6 c 6.498,0 17.188,1.26 25.153,7.13 7.755,5.66 12.157,15.72 12.157,26.41 0,18.03 -11.109,30.18 -28.297,30.18 -3.354,0 -6.498,-0.42 -8.384,-1.25 -0.419,-2.1 -0.629,-31.86 -0.629,-50.73 z m -22.638,4.82 c 0,15.1 -0.629,47.79 -1.467,56.39 -7.127,1.26 -15.511,1.68 -21.59,2.09 l -1.048,4.41 c 6.917,0.21 46.953,1.67 60.158,1.67 40.874,0 47.162,-17.39 47.162,-27.25 0,-6.07 -0.21,-11.31 -5.45,-19.7 -7.755,-12.16 -20.122,-18.86 -27.039,-21.8 v -0.63 c 20.751,-3.35 42.97,-18.23 42.97,-40.45 0,-24.11 -19.704,-40.25 -48.839,-40.25 -2.935,0 -10.062,0.42 -17.608,0.84 -7.336,0.42 -15.092,0.84 -19.494,0.84 -4.611,0 -25.781,-0.42 -31.86,-0.84 l 0.838,4.4 c 4.821,0.42 17.398,1.68 21.8,2.94 1.467,14.46 1.467,45.69 1.467,64.14 v 13.2"
       style="fill:#231f20;fill-opacity:1;fill-rule:nonzero;stroke:none;stroke-width:0.1"
       id="path60" /><path
       d="m 802.375,923.27 c 0,44.43 -30.813,76.29 -65.608,76.29 -28.717,0 -60.158,-19.28 -60.158,-62.46 0,-37.52 30.183,-74.41 71.058,-74.41 29.974,0 54.708,27.04 54.708,60.58 z m -129.749,-45.7 c -15.301,15.72 -20.123,31.02 -20.123,50.73 0,41.5 34.167,79.23 92.019,79.23 22.219,0 39.826,-3.56 58.062,-16.98 16.56,-12.16 25.363,-32.49 25.363,-51.98 0,-51.36 -38.987,-84.47 -90.551,-84.47 -21.171,0 -45.276,3.56 -64.77,23.47"
       style="fill:#231f20;fill-opacity:1;fill-rule:nonzero;stroke:none;stroke-width:0.1"
       id="path62" /><path
       d="m 1000.88,923.27 c 0,44.43 -30.817,76.29 -65.611,76.29 -28.717,0 -60.159,-19.28 -60.159,-62.46 0,-37.52 30.184,-74.41 71.058,-74.41 29.974,0 54.712,27.04 54.712,60.58 z m -129.753,-45.7 c -15.301,15.72 -20.122,31.02 -20.122,50.73 0,41.5 34.166,79.23 92.019,79.23 22.219,0 39.826,-3.56 58.066,-16.98 16.56,-12.16 25.36,-32.49 25.36,-51.98 0,-51.36 -38.989,-84.47 -90.553,-84.47 -21.17,0 -45.275,3.56 -64.77,23.47"
       style="fill:#231f20;fill-opacity:1;fill-rule:nonzero;stroke:none;stroke-width:0.1"
       id="path64" /><path
       d="m 1067.96,943.18 c 0,19.7 -0.42,48.84 -1.05,54.5 -5.03,0.84 -17.4,2.51 -22.43,2.93 l -0.63,4.4 c 4.19,-0.41 28.3,-0.83 36.89,-0.83 7.76,0 30.39,0.42 34.38,0.83 l -0.84,-4.4 c -2.52,-0.42 -16.56,-2.09 -21.38,-2.93 -0.84,-6.71 -1.05,-39.2 -1.05,-56.39 v -6.49 c 13.63,11.94 61.21,52.61 67.29,62.88 -4.83,1.26 -10.9,2.3 -15.52,2.93 l -0.83,4.4 c 8.8,-0.41 23.68,-0.83 31.86,-0.83 6.08,0 15.72,0.42 22.84,0.83 l -1.25,-4.4 c -3.15,-0.42 -8.39,-1.05 -13.84,-2.51 -9.01,-4.82 -48,-37.52 -56.8,-45.49 8.17,-12.99 68.54,-88.87 79.44,-98.93 l -7.13,-2.31 c -16.35,6.29 -86.98,78.6 -92.85,84.89 -3.99,-2.93 -10.48,-8.38 -13.21,-10.9 v -5.03 c 0,-18.23 0.21,-47.58 1.05,-55.33 5.45,-2.31 20.75,-3.57 23.89,-3.99 l 0.42,-4.4 c -3.98,0.42 -26.2,0.84 -37.52,0.84 -9.85,0 -29.76,-0.42 -35.84,-0.84 l 0.84,4.4 c 5.03,0.42 17.19,1.68 22.22,2.94 0.63,9.22 1.05,37.31 1.05,67.28 v 11.95"
       style="fill:#231f20;fill-opacity:1;fill-rule:nonzero;stroke:none;stroke-width:0.1"
       id="path66" /><path
       d="m 1267.08,836.28 c 0.42,2.93 3.36,26.2 3.36,34.37 0,5.45 1.26,28.09 0.63,33.12 l 4.82,-1.25 c -0.21,-2.73 0.84,-14.68 1.47,-18.45 5.66,-13.42 18.02,-22.85 32.49,-22.85 16.55,0 29.76,10.9 29.76,26.41 0,16.98 -13.21,25.37 -26.83,34.17 -20.54,13.42 -36.89,25.15 -36.89,48.84 0,16.35 12.16,36.89 43.18,36.89 12.37,0 23.26,-2.52 28.3,-3.77 1.46,5.03 2.51,11.32 3.77,16.98 l 4.82,0.62 c -2.94,-20.75 -5.03,-40.24 -5.03,-57.43 l -4.82,2.1 c 0,7.12 -0.42,12.15 -0.84,15.93 -2.31,7.54 -13.21,18.86 -27.88,18.86 -18.03,0 -25.57,-11.53 -25.57,-20.96 0,-13.62 14.25,-20.96 30.18,-31.02 17.4,-10.9 35.01,-22.64 35.01,-49.05 0,-29.14 -23.06,-45.69 -51.57,-45.69 -10.06,0 -23.05,2.09 -28.92,5.24 -1.05,-3.99 -3.15,-14.05 -4.61,-21.8 l -4.83,-1.26"
       style="fill:#231f20;fill-opacity:1;fill-rule:nonzero;stroke:none;stroke-width:0.1"
       id="path68" /><path
       d="m 1435.82,944.02 c 0,15.51 -0.42,46.53 -1.05,51.35 -33.54,0 -48.63,-5.24 -54.29,-8.8 -1.67,-4.61 -2.93,-12.79 -4.19,-19.7 l -4.82,-1.26 c 0.84,10.06 3.35,36.26 3.14,52.82 l 4.83,-0.84 c 0.21,-2.72 0.62,-9.22 1.25,-13.62 3.36,-0.63 39.41,-2.1 67.71,-2.1 30.39,0 66.65,1.47 70.01,2.1 0.83,2.51 2.09,9.01 2.93,12.99 l 5.24,0.84 c -1.26,-4.82 -6.08,-47.79 -6.71,-54.08 l -4.82,1.26 c 0.42,8.38 0.63,16.98 0.42,21.59 -5.24,4.19 -34.37,8.8 -54.71,8.8 -0.62,-5.66 -1.04,-36.26 -1.04,-51.35 v -9.43 c 0,-18.45 0.42,-53.87 1.04,-70.64 3.99,-0.63 23.06,-2.52 27.04,-2.94 l 0.84,-4.4 c -5.03,0.42 -29.55,0.84 -41.08,0.84 -9.43,0 -34.59,-0.42 -40.67,-0.84 l 1.05,4.4 c 4.82,0.42 21.8,2.31 26.83,2.94 0.63,16.35 1.05,52.4 1.05,70.64 v 9.43"
       style="fill:#231f20;fill-opacity:1;fill-rule:nonzero;stroke:none;stroke-width:0.1"
       id="path70" /><g
       id="g72"
       transform="scale(0.10483)"><path
         d="m 16056.1,8807.3 c 0,423.83 -293.9,727.75 -625.9,727.75 -273.9,0 -573.8,-183.91 -573.8,-595.82 0,-357.91 287.9,-709.82 677.8,-709.82 286,0 521.9,257.95 521.9,577.89 z m -1237.7,-435.94 c -146,149.96 -192,295.9 -192,483.92 0,395.88 326,755.8 877.8,755.8 212,0 379.9,-33.96 553.9,-161.98 158,-115.99 241.9,-309.93 241.9,-495.85 0,-489.93 -371.8,-805.78 -863.8,-805.78 -201.9,0 -431.8,33.96 -617.8,223.89"
         style="fill:#231f20;fill-opacity:1;fill-rule:nonzero;stroke:none"
         id="path74" /></g><g
       id="g76"
       transform="scale(0.115131)"><path
         d="m 15404.2,8090.24 c 65.5,0 143.9,5.47 222.1,34.57 78.3,29.18 207.6,112.91 207.6,293.14 0,116.56 -105.6,258.58 -420.5,258.58 -5.5,-74.7 -9.2,-400.59 -9.2,-529.83 z m -203.9,125.6 c 0,65.57 -1.8,415.17 -9.1,449.74 -30.9,7.3 -154.7,18.16 -194.8,21.8 l -5.4,38.31 393.2,1.74 c 172.9,0 389.6,-1.74 513.4,-50.9 96.5,-38.31 156.6,-107.45 156.6,-207.59 0,-114.65 -116.6,-265.79 -256.8,-344.13 20.1,-45.51 313.3,-522.45 502.6,-722.74 l -80.2,-12.77 c -127.4,58.28 -611.7,617.21 -640.8,655.43 -69.2,-5.48 -143.8,-10.95 -174.8,-10.95 v -47.33 c 0,-118.3 3.7,-398.68 9.2,-482.41 30.9,-9.12 151,-21.89 191,-25.53 l 7.3,-38.22 c -45.5,3.65 -229.3,7.29 -313.1,7.29 -74.6,0 -265.8,-3.64 -307.6,-7.29 l 7.2,38.22 c 25.5,1.82 142,12.76 193,25.53 7.3,52.81 9.1,409.62 9.1,600.79 v 111.01"
         style="fill:#231f20;fill-opacity:1;fill-rule:nonzero;stroke:none"
         id="path78" /></g><g
       id="g80"
       transform="scale(0.122217)"><path
         d="m 15603.7,7683 c 0,154.32 -5.2,427.03 -12,480.21 -32.6,6.88 -137.2,18.82 -178.4,23.98 l -6.9,36 c 41.2,-1.72 97.8,-3.36 154.4,-5.07 56.6,0 113.2,-1.72 150.9,-1.72 54.9,0 458,0 504.3,11.95 5.1,20.61 10.3,49.74 13.6,80.67 l 39.6,6.79 c -8.6,-36 -31,-301.84 -34.4,-355.02 l -37.7,12.03 c 0,12.02 1.7,89.18 0,123.46 -30.9,49.75 -295,72.09 -385.9,72.09 -5.2,-24.06 -12,-355.03 -12,-456.24 v -34.28 c 147.5,0 313.8,12.02 355,27.41 8.6,25.77 13.7,49.75 17.2,73.8 l 36,3.36 c -5.2,-30.85 -36,-265.76 -44.6,-320.67 l -32.6,13.75 c 1.7,36 3.5,80.6 3.5,114.88 -53.2,27.41 -187,37.72 -334.5,37.72 v -34.29 c 0,-104.65 6.8,-478.49 12,-528.24 171.5,0 332.7,13.75 411.6,58.26 18.9,60.06 27.5,113.24 37.8,150.96 l 39.4,10.31 c -12,-49.75 -49.7,-310.43 -56.6,-396.18 l -36,6.87 c 0,46.31 0,77.16 -1.7,104.57 -49.8,8.59 -430.5,15.46 -538.6,15.46 -58.2,0 -193.7,-3.43 -260.7,-6.87 l 8.6,36 c 27.4,1.72 130.4,12.03 176.7,24.06 6.8,30.84 12,346.43 12,535.11 V 7683"
         style="fill:#231f20;fill-opacity:1;fill-rule:nonzero;stroke:none"
         id="path82" /></g></g></svg>
